<svg xmlns="http://www.w3.org/2000/svg"  viewBox="0 0 24 24" width="48px" height="48px" baseProfile="basic"><linearGradient id="W8kXnuuOYFZiPq_V06NCXa" x1="3.555" x2="20.475" y1="4.434" y2="21.354" gradientUnits="userSpaceOnUse"><stop offset="0" stop-color="#fff" stop-opacity=".6"/><stop offset="1" stop-color="#fff" stop-opacity=".3"/></linearGradient><path fill="url(#W8kXnuuOYFZiPq_V06NCXa)" d="M18,4L5.998,4.003c-0.161,0-0.324,0.005-0.489,0.02C2.909,4.271,1,6.603,1,9.215V18 c0,1.105,0.895,2,2,2h18c1.105,0,2-0.895,2-2V9C23,6.239,20.761,4,18,4z"/><linearGradient id="W8kXnuuOYFZiPq_V06NCXb" x1="3.555" x2="20.475" y1="4.434" y2="21.354" gradientUnits="userSpaceOnUse"><stop offset="0" stop-color="#fff" stop-opacity=".6"/><stop offset=".493" stop-color="#fff" stop-opacity="0"/><stop offset=".997" stop-color="#fff" stop-opacity=".3"/></linearGradient><path fill="url(#W8kXnuuOYFZiPq_V06NCXb)" d="M18,4.5L18,4.5c2.481,0,4.5,2.019,4.5,4.5 v9c0,0.827-0.673,1.5-1.5,1.5H3c-0.827,0-1.5-0.673-1.5-1.5V9.215c0-2.415,1.782-4.477,4.056-4.694 c0.149-0.014,0.296-0.018,0.441-0.018L18,4.5 M18,4L5.998,4.003c-0.161,0-0.324,0.005-0.489,0.02C2.909,4.271,1,6.603,1,9.215V18 c0,1.105,0.895,2,2,2h18c1.105,0,2-0.895,2-2V9C23,6.239,20.761,4,18,4L18,4z"/><linearGradient id="W8kXnuuOYFZiPq_V06NCXc" x1="15.543" x2="20.957" y1="9.043" y2="14.457" gradientUnits="userSpaceOnUse"><stop offset="0" stop-color="#fff" stop-opacity=".7"/><stop offset=".519" stop-color="#fff" stop-opacity=".45"/><stop offset="1" stop-color="#fff" stop-opacity=".55"/></linearGradient><path fill="url(#W8kXnuuOYFZiPq_V06NCXc)" d="M20,10h-5c-0.552,0-1,0.448-1,1	c0,0.552,0.448,1,1,1h2v2c0,0.552,0.448,1,1,1h2c0.552,0,1-0.448,1-1v-3C21,10.448,20.552,10,20,10z"/><linearGradient id="W8kXnuuOYFZiPq_V06NCXd" x1=".555" x2="11.475" y1="7.434" y2="18.354" gradientUnits="userSpaceOnUse"><stop offset="0" stop-color="#fff" stop-opacity=".7"/><stop offset=".519" stop-color="#fff" stop-opacity=".45"/><stop offset="1" stop-color="#fff" stop-opacity=".55"/></linearGradient><path fill="url(#W8kXnuuOYFZiPq_V06NCXd)" d="M5.509,4.023C2.909,4.271,1,6.603,1,9.215	L1,18c0,1.105,0.895,2,2,2h6c1.105,0,2-0.895,2-2V9C11,6.077,8.491,3.739,5.509,4.023z M7,10H5c-0.552,0-1-0.448-1-1	c0-0.552,0.448-1,1-1h2c0.552,0,1,0.448,1,1C8,9.552,7.552,10,7,10z"/></svg>