<?xml version="1.0" encoding="UTF-8"?>
<svg id="Layer_1" xmlns="http://www.w3.org/2000/svg" version="1.1" viewBox="0 0 1024 1024">
  <!-- Generator: Adobe Illustrator 29.5.0, SVG Export Plug-In . SVG Version: 2.1.0 Build 137)  -->
  <defs>
    <style>
      .st0 {
        fill: #6d3ff6;
      }

      .st1 {
        fill: #0a5ef5;
      }

      .st2 {
        fill: #080c5d;
      }

      .st3 {
        fill: #fefefe;
      }
    </style>
  </defs>
  <path class="st1" d="M647.8,202.03c5.19,18.62,10.26,37.27,15.09,54.86,14.1-3.29,29.1-6.35,44.22-9.35,28.33-5.61,55.65,13.45,60.14,41.97,4.67,29.62,9.02,60.02,12.46,87.29,11.14-.14,52.84-3.35,60.28,3.3,1.89,1.7,2.31,3.07,2.07,5.54-.84,8.32-59.35,50.9-68.97,59.38,65.99,1.12,121.15,5.86,171.04,55.99,76.72,77.1,76.13,234.73-2.61,309.79-53.17,50.68-122.24,53.58-190.98,51.93-33.99-.19-70.15-.34-103.93.08-36.66-.58-74.96-.05-111.73-.05l-224.31.13c-25.61-.04-51.22.07-76.84.29-16.33.2-54.07.62-69.63-1.01h-12.12s0,0,0,0c-11.14-.06-20.76-7.76-23.31-18.6-5.02-21.37-9.59-44.13-14.76-64.99l-62.74-251.7c-8.97-36.4-17.62-74-26.73-111-6.66-27.06,8.24-54.74,34.5-64.07,54.78-19.46,110.15-39.97,164.16-59.56l284.94-102.85c21.79-7.88,44.12-16.38,66.38-24.71,30.67-11.48,64.57,5.79,73.36,37.34ZM650.05,555.86c25.99-1,56.45-.27,82.77-.27.97,75.37.08,151.98.2,227.52,6.33-.05,12.66-.04,18.99,0,44.6.13,96.83,4.28,130.69-30.59,44.99-46.33,44.44-151.76-2.07-197.06-35-34.09-79.41-31.5-124.24-31.52-23.45-.06-46.89.01-70.32.22-4.98,4.13-34.78,27.25-36.89,30.47l.86,1.22Z"/>
  <path class="st2" d="M173.26,395.87c6.41-10.06,10.13-11.95,20.58-16.5.9,5.54,1.11,8.07,5.42,11.75,15.16,12.92,31.51,25.35,47.19,37.62,27.77,21.63,55.36,43.47,82.79,65.53l118.5,94.59c21.24,17.12,42.28,34.7,63.67,51.45,10.48,8.21,22.52,8.02,32.48-.26,32.9-27.36,70.94-54.84,102.45-83.44.98,7.89,1.88,79.08.06,84.4l1.27,1.54c-1.65,21.15-.59,47.61-.9,69.12-.69,50.14.84,101.07-.15,151.16-36.66-.58-74.96-.05-111.73-.05l-224.31.13c-25.61-.04-51.22.07-76.84.29-16.33.2-54.07.62-69.63-1.01,5.57-.48,23.46.58,27.05-1.67l-1.05-1.15c-11.84-1.05-18.1-18.49-17.73-28.9-1.2-39.23-.8-78.4-.81-117.65l.11-185.1-.31-79.48c-.04-11.9-.47-41.38,1.88-52.36Z"/>
  <path class="st2" d="M613.81,612.85c10.72,9.04,22.45,18.58,32.59,28.15l1.27,1.54c-1.65,21.15-.59,47.61-.9,69.12-.69,50.14.84,101.07-.15,151.16-36.66-.58-74.96-.05-111.73-.05l-224.31.13c-25.61-.04-51.22.07-76.84.29-16.33.2-54.07.62-69.63-1.01,5.57-.48,23.46.58,27.05-1.67l-1.05-1.15c-.65-6.73.39-8.8,5.35-13.06,10.84-9.29,21.94-18.28,32.95-27.36l62.54-51.68c55.91-46.25,111.54-92.83,166.86-139.78,16.74,12.71,49.62,44.88,67.75,46.55,19.09,1.77,72.31-47.41,88.22-61.16Z"/>
  <path class="st3" d="M173.26,395.87c6.41-10.06,10.13-11.95,20.58-16.5.9,5.54,1.11,8.07,5.42,11.75,15.16,12.92,31.51,25.35,47.19,37.62,27.77,21.63,55.36,43.47,82.79,65.53l118.5,94.59c21.24,17.12,42.28,34.7,63.67,51.45,10.48,8.21,22.52,8.02,32.48-.26,32.9-27.36,70.94-54.84,102.45-83.44.98,7.89,1.88,79.08.06,84.4-10.14-9.56-21.87-19.1-32.59-28.15-15.91,13.75-69.13,62.94-88.22,61.16-18.13-1.67-51.01-33.83-67.75-46.55-55.33,46.95-110.95,93.54-166.86,139.78l-62.54,51.68c-11.01,9.09-22.11,18.07-32.95,27.36-4.97,4.26-6.01,6.33-5.35,13.06-11.84-1.05-18.1-18.49-17.73-28.9,15.37-11.32,34.26-27.77,49.11-40.12l74.18-61.46c45.62-38.04,97.5-78.95,141.28-118.32-9.53-8.84-23.86-19.96-34.31-28.55l-69.41-56.53c-52.95-43.02-106.19-87.74-159.98-129.61Z"/>
  <path class="st0" d="M773.1,445.03c65.99,1.12,121.15,5.86,171.04,55.99,76.72,77.1,76.13,234.73-2.61,309.79-53.17,50.68-122.24,53.58-190.98,51.93-33.99-.19-70.15-.34-103.93.08.98-50.09-.54-101.01.15-151.16.31-21.51-.75-47.96.9-69.12l-1.27-1.54c1.82-5.32.93-76.51-.06-84.4.83-.74,1.55-.38,3.27-.39l.44-.36c25.99-1,56.45-.27,82.77-.27.97,75.37.08,151.98.2,227.52,6.33-.05,12.66-.04,18.99,0,44.6.13,96.83,4.28,130.69-30.59,44.99-46.33,44.44-151.76-2.07-197.06-35-34.09-79.41-31.5-124.24-31.52-23.45-.06-46.89.01-70.32.22l-39.34-.22-.06-78.75,126.42-.17Z"/>
  <path class="st2" d="M779.71,376.8c11.14-.14,52.84-3.35,60.28,3.3,1.89,1.7,2.31,3.07,2.07,5.54-.84,8.32-59.35,50.9-68.97,59.38l-126.42.17.06,78.75,39.34.22c-4.98,4.13-34.78,27.25-36.89,30.47l.86,1.22-.44.36c-1.72,0-2.44-.35-3.27.39-31.51,28.6-69.55,56.08-102.45,83.44-9.96,8.28-22,8.47-32.48.26-21.39-16.75-42.43-34.32-63.67-51.45l-118.5-94.59c-27.43-22.06-55.02-43.9-82.79-65.53-15.68-12.26-32.03-24.69-47.19-37.62-4.31-3.68-4.52-6.21-5.42-11.75,10.67-3.69,86.07-1.93,101.9-2.04,161.2-1.08,322.8,1.51,483.97-.53Z"/>
  <path class="st0" d="M647.3,200.23c5.36,19.22,10.6,38.49,15.59,56.65-39.6,6.81-78.54,15.13-117.93,22.98l-194.42,38.4-192.43,38.74c-4.94,1.04-9.98,2-15.07,2.93-30.78,5.62-51.49,34.99-46.16,65.83.03.16.06.32.08.48,4.56,25.81,6.74,54.86,9.96,81.06l15.36,120.77,9.25,70.02c5.35,43.58,11.39,86.89,16.85,130.46,1.25,9.96,3.52,23.8,3.61,33.6h0c-11.14-.06-20.76-7.76-23.31-18.6-5.02-21.37-9.59-44.13-14.76-64.99l-62.74-251.7c-8.92-36.18-17.51-73.54-26.56-110.32-6.75-27.44,8.36-55.51,34.99-64.97,54.57-19.39,109.71-39.82,163.51-59.33l284.94-102.85c22.33-8.08,45.23-16.8,68.03-25.32,29.75-11.13,62.67,5.57,71.21,36.16Z"/>
</svg>