<svg xmlns="http://www.w3.org/2000/svg"  viewBox="0 0 24 24" width="48px" height="48px" baseProfile="basic"><linearGradient id="iSVP3_b4-y7RuAZ8Adt9ka" x1="3.879" x2="20.121" y1="3.879" y2="20.121" gradientUnits="userSpaceOnUse"><stop offset="0" stop-color="#fff" stop-opacity=".6"/><stop offset="1" stop-color="#fff" stop-opacity=".3"/></linearGradient><path fill="url(#iSVP3_b4-y7RuAZ8Adt9ka)" d="M4,19V5c0-1.657,1.343-3,3-3h10c1.657,0,3,1.343,3,3v14c0,1.657-1.343,3-3,3H7 C5.343,22,4,20.657,4,19z"/><linearGradient id="iSVP3_b4-y7RuAZ8Adt9kb" x1="3.879" x2="20.121" y1="3.879" y2="20.121" gradientUnits="userSpaceOnUse"><stop offset="0" stop-color="#fff" stop-opacity=".6"/><stop offset=".493" stop-color="#fff" stop-opacity="0"/><stop offset=".997" stop-color="#fff" stop-opacity=".3"/></linearGradient><path fill="url(#iSVP3_b4-y7RuAZ8Adt9kb)" d="M17,2.5c1.379,0,2.5,1.121,2.5,2.5v14 c0,1.379-1.121,2.5-2.5,2.5H7c-1.379,0-2.5-1.121-2.5-2.5V5c0-1.379,1.121-2.5,2.5-2.5H17 M17,2H7C5.343,2,4,3.343,4,5v14 c0,1.657,1.343,3,3,3h10c1.657,0,3-1.343,3-3V5C20,3.343,18.657,2,17,2L17,2z"/><linearGradient id="iSVP3_b4-y7RuAZ8Adt9kc" x1="7.732" x2="16.268" y1="9.025" y2="17.561" gradientUnits="userSpaceOnUse"><stop offset="0" stop-color="#fff" stop-opacity=".7"/><stop offset=".519" stop-color="#fff" stop-opacity=".45"/><stop offset="1" stop-color="#fff" stop-opacity=".55"/></linearGradient><path fill="url(#iSVP3_b4-y7RuAZ8Adt9kc)" d="M9,9c0-1.657,1.343-3,3-3s3,1.343,3,3	s-1.343,3-3,3S9,10.657,9,9z M15,14H9c-1.105,0-2,0.895-2,2c0,1.104,0.895,2,2,2h6c1.105,0,2-0.896,2-2C17,14.895,16.105,14,15,14z"/></svg>